<svg width="24" height="24" viewBox="0 0 24 24" fill="none" xmlns="http://www.w3.org/2000/svg">
<g clip-path="url(#clip0_336_272)">
<path fill-rule="evenodd" clip-rule="evenodd" d="M22.5 21C22.5 21.825 21.828 22.5 21 22.5H3C2.172 22.5 1.5 21.825 1.5 21V3C1.5 2.175 2.172 1.5 3 1.5H21C21.828 1.5 22.5 2.175 22.5 3V21ZM21 0H3C1.34325 0 0 1.3425 0 3V21C0 22.6575 1.34325 24 3 24H21C22.6567 24 24 22.6575 24 21V3C24 1.3425 22.6567 0 21 0ZM16.5203 6.80246C16.161 6.59246 15.7028 6.72004 15.4958 7.07254L10.6995 15.3825L8.01599 12.9075C7.73249 12.6075 7.25774 12.5925 6.95549 12.8775C6.65324 13.155 6.6375 13.635 6.921 13.935L10.35 17.1C10.6327 17.4 11.1075 17.415 11.4098 17.13C11.5013 17.0475 16.7948 7.82254 16.7948 7.82254C17.0018 7.47004 16.8788 7.00496 16.5203 6.80246Z" fill="white"/>
</g>
<defs>
<clipPath id="clip0_336_272">
<rect width="24" height="24" fill="white"/>
</clipPath>
</defs>
</svg>
