<svg width="24" height="25" viewBox="0 0 24 25" fill="none" xmlns="http://www.w3.org/2000/svg">
<path d="M11.5003 12.0962H5.41872M5.24634 12.8934L4.24158 15.8948C3.69128 17.5386 3.41613 18.3605 3.61359 18.8666C3.78506 19.3062 4.15335 19.6394 4.6078 19.7663C5.13111 19.9123 5.92151 19.5566 7.50231 18.8453L17.6367 14.2848C19.1797 13.5904 19.9512 13.2433 20.1896 12.761C20.3968 12.342 20.3968 11.8503 20.1896 11.4313C19.9512 10.9491 19.1797 10.6019 17.6367 9.90754L7.48483 5.33922C5.90879 4.63001 5.12078 4.2754 4.59799 4.42087C4.14397 4.5472 3.77572 4.87955 3.60365 5.31828C3.40551 5.82347 3.67772 6.6436 4.22215 8.28386L5.24829 11.3755C5.34179 11.6572 5.38855 11.7981 5.407 11.9421C5.42338 12.07 5.42321 12.1994 5.40651 12.3272C5.38768 12.4712 5.34057 12.6119 5.24634 12.8934Z" stroke="white" stroke-width="2" stroke-linecap="round" stroke-linejoin="round"/>
</svg>
