<svg width="25" height="25" viewBox="0 0 25 25" fill="none" xmlns="http://www.w3.org/2000/svg">
<path d="M8.5 2.09619H16.5C18.0913 2.09619 19.6174 2.72833 20.7426 3.85355C21.8679 4.97877 22.5 6.50489 22.5 8.09619V16.0962C22.5 17.6875 21.8679 19.2136 20.7426 20.3388C19.6174 21.4641 18.0913 22.0962 16.5 22.0962H8.5C6.9087 22.0962 5.38258 21.4641 4.25736 20.3388C3.13214 19.2136 2.5 17.6875 2.5 16.0962L2.5 8.09619C2.5 6.50489 3.13214 4.97877 4.25736 3.85355C5.38258 2.72833 6.9087 2.09619 8.5 2.09619ZM14.5 11.0962C14.2348 11.0962 13.9804 11.2015 13.7929 11.3891C13.6054 11.5766 13.5 11.831 13.5 12.0962C13.5 12.3614 13.6054 12.6158 13.7929 12.8033C13.9804 12.9908 14.2348 13.0962 14.5 13.0962H17.5C17.7652 13.0962 18.0196 12.9908 18.2071 12.8033C18.3946 12.6158 18.5 12.3614 18.5 12.0962C18.5 11.831 18.3946 11.5766 18.2071 11.3891C18.0196 11.2015 17.7652 11.0962 17.5 11.0962H14.5ZM12.5 15.0962C12.2348 15.0962 11.9804 15.2015 11.7929 15.3891C11.6054 15.5766 11.5 15.831 11.5 16.0962C11.5 16.3614 11.6054 16.6158 11.7929 16.8033C11.9804 16.9908 12.2348 17.0962 12.5 17.0962H17.5C17.7652 17.0962 18.0196 16.9908 18.2071 16.8033C18.3946 16.6158 18.5 16.3614 18.5 16.0962C18.5 15.831 18.3946 15.5766 18.2071 15.3891C18.0196 15.2015 17.7652 15.0962 17.5 15.0962H12.5ZM12.5 7.09619C12.2348 7.09619 11.9804 7.20155 11.7929 7.38908C11.6054 7.57662 11.5 7.83098 11.5 8.09619C11.5 8.36141 11.6054 8.61576 11.7929 8.8033C11.9804 8.99083 12.2348 9.09619 12.5 9.09619H17.5C17.7652 9.09619 18.0196 8.99083 18.2071 8.8033C18.3946 8.61576 18.5 8.36141 18.5 8.09619C18.5 7.83098 18.3946 7.57662 18.2071 7.38908C18.0196 7.20155 17.7652 7.09619 17.5 7.09619H12.5ZM8.328 12.3392L7.621 11.6322C7.52875 11.5367 7.41841 11.4605 7.2964 11.4081C7.1744 11.3557 7.04318 11.3281 6.9104 11.3269C6.77762 11.3258 6.64594 11.3511 6.52305 11.4014C6.40015 11.4517 6.2885 11.5259 6.19461 11.6198C6.10071 11.7137 6.02646 11.8253 5.97618 11.9482C5.9259 12.0711 5.9006 12.2028 5.90175 12.3356C5.9029 12.4684 5.93049 12.5996 5.9829 12.7216C6.03531 12.8436 6.11149 12.9539 6.207 13.0462L7.621 14.4602C7.71387 14.5532 7.82416 14.6269 7.94556 14.6773C8.06696 14.7276 8.19708 14.7535 8.3285 14.7535C8.45992 14.7535 8.59004 14.7276 8.71144 14.6773C8.83284 14.6269 8.94313 14.5532 9.036 14.4602L11.864 11.6322C12.0518 11.4447 12.1574 11.1903 12.1576 10.9249C12.1577 10.6595 12.0525 10.405 11.865 10.2172C11.6775 10.0294 11.4231 9.92382 11.1577 9.92364C10.8923 9.92345 10.6378 10.0287 10.45 10.2162L8.328 12.3382V12.3392Z" fill="white" stroke="white" stroke-width="0.00024"/>
</svg>
