<svg width="37" height="36" viewBox="0 0 37 36" fill="none" xmlns="http://www.w3.org/2000/svg">
<path fill-rule="evenodd" clip-rule="evenodd" d="M6.75 1.5C5.92158 1.5 5.25 2.17158 5.25 3V33C5.25 33.8284 5.92158 34.5 6.75 34.5C7.57842 34.5 8.25 33.8284 8.25 33V20.3974C8.94903 20.0494 10.0541 19.5644 11.2388 19.2682C13.3637 18.7371 15.069 18.9332 16.002 20.3325C17.7435 22.9446 21.0693 23.1747 23.6289 22.9197C26.33 22.6506 29.0022 21.7661 30.3531 21.2664C31.54 20.8275 32.25 19.7004 32.25 18.5112V8.58506C32.25 6.25796 29.7867 4.89936 27.8234 5.78972C26.2313 6.51177 24.1161 7.31813 22.2046 7.58445C20.2048 7.86311 19.0434 7.48605 18.498 6.66816C16.5301 3.71644 13.1634 3.36699 10.7504 3.56807C9.8241 3.64527 8.96339 3.80724 8.25 3.97873V3C8.25 2.17158 7.57842 1.5 6.75 1.5ZM8.25 7.0816V17.107C8.91124 16.8371 9.68424 16.5645 10.5112 16.3578C12.8863 15.7641 16.431 15.5681 18.498 18.6683C19.2159 19.7451 20.8703 20.1796 23.3315 19.9345C25.6137 19.7071 27.9633 18.9481 29.25 18.4758V8.58506C29.25 8.51691 29.1122 8.49935 29.0625 8.52189C27.3862 9.28206 24.9594 10.2296 22.6186 10.5557C20.3664 10.8696 17.5656 10.6778 16.002 8.33232C14.9698 6.78426 13.0866 6.38379 10.9996 6.5577C9.93608 6.64634 8.9464 6.87939 8.25 7.0816Z" fill="white" stroke="#BA0000" stroke-width="2"/>
</svg>
