<svg width="55" height="56" viewBox="0 0 55 56" fill="none" xmlns="http://www.w3.org/2000/svg">
<g clip-path="url(#clip0_35_197)">
<path d="M27.5 5.08334C40.15 5.08334 50.4167 15.35 50.4167 28C50.4167 40.65 40.15 50.9167 27.5 50.9167C14.85 50.9167 4.58337 40.65 4.58337 28C4.58337 15.35 14.85 5.08334 27.5 5.08334ZM13.8027 35.8283C17.1669 40.8471 22.2177 44.0417 27.8667 44.0417C33.5134 44.0417 38.5665 40.8494 41.9284 35.8283C38.1144 32.2639 33.087 30.2844 27.8667 30.2917C22.6456 30.2838 17.6173 32.2633 13.8027 35.8283ZM27.5 25.7083C29.3234 25.7083 31.0721 24.984 32.3614 23.6947C33.6507 22.4054 34.375 20.6567 34.375 18.8333C34.375 17.01 33.6507 15.2613 32.3614 13.972C31.0721 12.6827 29.3234 11.9583 27.5 11.9583C25.6767 11.9583 23.928 12.6827 22.6387 13.972C21.3494 15.2613 20.625 17.01 20.625 18.8333C20.625 20.6567 21.3494 22.4054 22.6387 23.6947C23.928 24.984 25.6767 25.7083 27.5 25.7083Z" fill="white"/>
</g>
<defs>
<clipPath id="clip0_35_197">
<rect width="55" height="55" fill="white" transform="translate(0 0.5)"/>
</clipPath>
</defs>
</svg>
