<svg width="40" height="40" viewBox="0 0 40 40" fill="none" xmlns="http://www.w3.org/2000/svg">
<path d="M33.75 38.75H6.25C4.87 38.75 3.75 37.63 3.75 36.25V8.75C3.75 7.36875 4.87 6.25 6.25 6.25H8.75V7.5C8.75 9.57125 10.4288 11.25 12.5 11.25C14.5712 11.25 16.25 9.57125 16.25 7.5V6.25H23.75V7.5C23.75 9.57125 25.43 11.25 27.5 11.25C29.57 11.25 31.25 9.57125 31.25 7.5V6.25H33.75C35.13 6.25 36.25 7.36875 36.25 8.75V36.25C36.25 37.63 35.13 38.75 33.75 38.75ZM33.75 15H6.25V36.25H33.75V15ZM12.5 21.25H8.75V17.5H12.5V21.25ZM12.5 27.5H8.75V23.75H12.5V27.5ZM12.5 33.75H8.75V30H12.5V33.75ZM18.75 21.25H15V17.5H18.75V21.25ZM18.75 27.5H15V23.75H18.75V27.5ZM18.75 33.75H15V30H18.75V33.75ZM25 21.25H21.25V17.5H25V21.25ZM25 27.5H21.25V23.75H25V27.5ZM25 33.75H21.25V30H25V33.75ZM31.25 21.25H27.5V17.5H31.25V21.25ZM31.25 27.5H27.5V23.75H31.25V27.5ZM31.25 33.75H27.5V30H31.25V33.75ZM27.4613 10C26.1012 10 25 8.8975 25 7.53875V4.96125C25 3.60125 26.1012 2.5 27.4613 2.5C28.8212 2.5 29.9225 3.60125 29.9225 4.96125V7.53875C29.9225 8.8975 28.8212 10 27.4613 10ZM12.4613 10C11.1012 10 10 8.8975 10 7.53875V4.96125C10 3.60125 11.1012 2.5 12.4613 2.5C13.8212 2.5 14.9225 3.60125 14.9225 4.96125V7.53875C14.9225 8.8975 13.82 10 12.4613 10Z" fill="white" stroke="white"/>
</svg>
