<svg width="373" height="58" viewBox="0 0 373 58" fill="none" xmlns="http://www.w3.org/2000/svg">
<path d="M38.256 40.748H36.288L35.856 41.228H43.2C43.168 41.26 43.136 41.292 43.104 41.324C43.072 41.356 43.024 41.404 42.96 41.468H31.632C31.472 41.628 31.296 41.788 31.104 41.948C30.944 42.108 30.768 42.268 30.576 42.428H34.08L33.456 42.908H39.984L39.6 43.148H36.768C36.736 43.18 36.672 43.212 36.576 43.244C36.512 43.276 36.448 43.324 36.384 43.388H33.168L31.824 44.108H33.696C33.28 44.3 32.864 44.476 32.448 44.636C32.032 44.764 31.6 44.908 31.152 45.068H29.424C28.336 45.388 27.152 45.628 25.872 45.788H26.112C25.6 45.852 25.072 45.9 24.528 45.932C23.984 45.964 23.44 45.98 22.896 45.98C22.288 45.98 21.68 45.964 21.072 45.932C20.496 45.9 19.936 45.852 19.392 45.788H19.2C17.824 45.628 16.592 45.388 15.504 45.068H17.232C16.752 44.908 16.304 44.764 15.888 44.636C15.472 44.476 15.056 44.3 14.64 44.108H12.768C12.544 43.98 12.32 43.868 12.096 43.772C11.872 43.644 11.648 43.516 11.424 43.388H14.688L14.304 43.148H17.136C17.104 43.084 17.056 43.036 16.992 43.004C16.928 42.972 16.864 42.94 16.8 42.908H10.272C10.144 42.844 10.032 42.764 9.936 42.668C9.84 42.572 9.744 42.492 9.648 42.428H6.096C5.936 42.268 5.776 42.108 5.616 41.948C5.424 41.788 5.248 41.628 5.088 41.468H16.416C16.384 41.404 16.352 41.356 16.32 41.324C16.288 41.292 16.256 41.26 16.224 41.228H8.88C8.752 41.1 8.624 40.94 8.496 40.748H10.464C10.432 40.684 10.4 40.636 10.368 40.604C10.336 40.572 10.304 40.54 10.272 40.508H16.272L15.84 39.788H12.864L12.72 39.548H5.952C5.92 39.42 5.872 39.308 5.808 39.212C5.744 39.084 5.68 38.956 5.616 38.828H8.832L8.544 38.108H7.392L7.296 37.868H7.824C7.792 37.74 7.76 37.628 7.728 37.532C7.696 37.404 7.664 37.276 7.632 37.148H7.248C7.248 37.02 7.232 36.908 7.2 36.812C7.2 36.684 7.184 36.556 7.152 36.428H6.768C6.768 36.3 6.752 36.188 6.72 36.092C6.72 35.996 6.72 35.884 6.72 35.756V35.708H6.672C6.672 35.644 6.672 35.596 6.672 35.564C6.704 35.532 6.72 35.5 6.72 35.468H7.824C7.984 34.956 8.32 34.7 8.832 34.7H17.952C18.464 34.7 18.848 34.764 19.104 34.892C19.36 35.02 19.648 35.212 19.968 35.468H18.864L18.912 35.516C18.976 35.548 19.024 35.58 19.056 35.612C19.12 35.644 19.168 35.676 19.2 35.708H19.248C19.664 36.028 20.176 36.268 20.784 36.428H21.216C21.632 36.556 22.192 36.62 22.896 36.62C23.312 36.62 23.696 36.604 24.048 36.572C24.4 36.54 24.704 36.492 24.96 36.428H24.816C25.552 36.268 26.016 36.028 26.208 35.708H26.112C26.176 35.58 26.208 35.5 26.208 35.468H26.688L26.736 35.276C26.736 34.988 26.624 34.732 26.4 34.508H26.016C25.728 34.22 25.216 33.98 24.48 33.788H24.336C24.048 33.692 23.712 33.612 23.328 33.548C22.944 33.452 22.496 33.372 21.984 33.308H21.696L19.728 33.02C19.504 32.988 19.28 32.956 19.056 32.924C18.864 32.892 18.656 32.86 18.432 32.828C17.12 32.604 15.856 32.284 14.64 31.868H13.776C13.328 31.708 12.912 31.548 12.528 31.388H11.856C11.696 31.324 11.536 31.26 11.376 31.196C11.216 31.1 11.056 31.004 10.896 30.908H6.72C6.496 30.78 6.288 30.668 6.096 30.572C5.904 30.444 5.712 30.316 5.52 30.188H14.448C14.288 30.06 14.128 29.948 13.968 29.852C13.84 29.724 13.696 29.596 13.536 29.468H3.984C3.888 29.404 3.808 29.324 3.744 29.228C3.648 29.132 3.568 29.052 3.504 28.988H6C5.712 28.668 5.44 28.348 5.184 28.028H5.904L5.616 27.548H1.008C0.976 27.484 0.944 27.436 0.912 27.404C0.88 27.372 0.864 27.34 0.864 27.308H11.808C11.744 27.18 11.68 27.068 11.616 26.972C11.552 26.844 11.488 26.716 11.424 26.588H3.024L2.736 25.868H9.504L9.408 25.628H7.392L7.296 25.388H8.256C8.256 25.324 8.24 25.276 8.208 25.244C8.208 25.212 8.208 25.18 8.208 25.148H8.016L7.872 24.668H7.584L7.536 24.188H7.44V23.948H5.904C5.872 23.884 5.856 23.804 5.856 23.708C5.856 23.612 5.856 23.532 5.856 23.468H4.464L4.416 22.988H9.888C9.856 22.924 9.84 22.844 9.84 22.748C9.84 22.652 9.84 22.572 9.84 22.508H10.608V22.46C10.608 22.3 10.608 22.14 10.608 21.98C10.608 21.82 10.624 21.676 10.656 21.548H8.592C8.624 21.42 8.64 21.308 8.64 21.212C8.64 21.084 8.656 20.956 8.688 20.828H12.048C12.048 20.764 12.048 20.716 12.048 20.684C12.08 20.652 12.096 20.62 12.096 20.588H8.688C8.752 20.396 8.784 20.236 8.784 20.108H8.256L8.4 19.628H7.584C7.68 19.276 7.792 18.956 7.92 18.668H8.304L8.496 18.188H9.024L9.456 17.468H8.976C9.072 17.34 9.152 17.228 9.216 17.132C9.312 17.004 9.392 16.876 9.456 16.748H9.072L9.648 16.028H10.656C10.688 15.964 10.72 15.916 10.752 15.884C10.784 15.852 10.816 15.82 10.848 15.788H9.504C9.632 15.66 9.76 15.548 9.888 15.452C10.016 15.324 10.144 15.196 10.272 15.068H11.04C11.232 14.908 11.424 14.748 11.616 14.588C11.808 14.396 12.016 14.236 12.24 14.108H13.104C13.296 13.98 13.488 13.868 13.68 13.772C13.872 13.644 14.08 13.516 14.304 13.388H14.16C14.224 13.324 14.304 13.276 14.4 13.244C14.496 13.212 14.576 13.18 14.64 13.148H13.968C14.032 13.084 14.112 13.036 14.208 13.004C14.304 12.972 14.4 12.94 14.496 12.908H14.016C14.464 12.716 14.928 12.54 15.408 12.38C15.92 12.22 16.432 12.076 16.944 11.948H17.664C18.4 11.788 19.168 11.66 19.968 11.564C20.8 11.468 21.664 11.42 22.56 11.42C24.256 11.42 25.856 11.596 27.36 11.948H26.688C27.712 12.172 28.704 12.492 29.664 12.908H30.096C30.192 12.94 30.288 12.972 30.384 13.004C30.48 13.036 30.576 13.084 30.672 13.148H31.344C31.408 13.18 31.488 13.212 31.584 13.244C31.68 13.276 31.76 13.324 31.824 13.388H31.968C32.192 13.516 32.4 13.644 32.592 13.772C32.816 13.868 33.024 13.98 33.216 14.108H32.4C32.656 14.236 32.88 14.396 33.072 14.588C33.296 14.748 33.504 14.908 33.696 15.068H32.976L33.744 15.788H35.088L35.328 16.028H34.32C34.448 16.156 34.56 16.284 34.656 16.412C34.784 16.508 34.896 16.62 34.992 16.748H35.376L35.952 17.468H36.384L36.816 18.188H36.288C36.384 18.348 36.464 18.508 36.528 18.668H36.144C36.24 18.828 36.32 18.988 36.384 19.148C36.448 19.308 36.512 19.468 36.576 19.628H37.392C37.456 19.82 37.488 19.98 37.488 20.108H38.064C38.096 20.172 38.112 20.252 38.112 20.348C38.112 20.444 38.128 20.524 38.16 20.588H41.568V20.828H38.496C38.528 20.956 38.544 21.132 38.544 21.356V21.548H36.768C36.64 22.124 36.32 22.412 35.808 22.412H26.208C25.76 22.412 25.392 22.348 25.104 22.22C24.848 22.092 24.576 21.9 24.288 21.644L24.144 21.548H25.92C25.76 21.42 25.536 21.292 25.248 21.164C24.96 21.004 24.592 20.892 24.144 20.828H22.416C21.744 20.924 21.28 21.164 21.024 21.548H23.088C22.992 21.74 22.944 21.932 22.944 22.124C22.944 22.284 22.96 22.412 22.992 22.508H22.272C22.304 22.668 22.432 22.828 22.656 22.988H17.232C17.424 23.148 17.76 23.308 18.24 23.468H19.632C19.888 23.564 20.192 23.66 20.544 23.756C20.928 23.82 21.328 23.884 21.744 23.948H23.28C23.536 23.98 23.808 24.012 24.096 24.044C24.384 24.076 24.688 24.124 25.008 24.188H25.056C25.6 24.252 26.128 24.332 26.64 24.428C27.152 24.492 27.632 24.572 28.08 24.668H28.368C28.752 24.732 29.104 24.812 29.424 24.908C29.776 24.972 30.112 25.052 30.432 25.148H30.624C30.784 25.18 30.928 25.212 31.056 25.244C31.184 25.276 31.312 25.324 31.44 25.388H30.528C30.656 25.42 30.768 25.452 30.864 25.484C30.992 25.516 31.12 25.564 31.248 25.628H33.264C33.36 25.66 33.456 25.692 33.552 25.724C33.68 25.756 33.792 25.804 33.888 25.868H27.12C27.76 26.124 28.272 26.364 28.656 26.588H37.056C37.248 26.716 37.44 26.844 37.632 26.972C37.824 27.068 38 27.18 38.16 27.308H27.216C27.28 27.34 27.344 27.372 27.408 27.404C27.472 27.436 27.52 27.484 27.552 27.548H32.16C32.256 27.612 32.352 27.692 32.448 27.788C32.544 27.884 32.624 27.964 32.688 28.028H31.968C32.288 28.316 32.56 28.636 32.784 28.988H30.288C30.352 29.052 30.416 29.132 30.48 29.228C30.544 29.324 30.592 29.404 30.624 29.468H40.128L40.56 30.188H31.632C31.696 30.316 31.76 30.444 31.824 30.572C31.888 30.668 31.936 30.78 31.968 30.908H36.096L36.24 31.388H36.912L37.056 31.868H37.92C37.984 31.996 38.016 32.156 38.016 32.348C38.048 32.508 38.08 32.668 38.112 32.828L38.16 33.308H38.448C38.48 33.372 38.496 33.452 38.496 33.548C38.496 33.644 38.496 33.724 38.496 33.788H38.64V34.508H39.072V34.652C39.072 34.78 39.056 34.908 39.024 35.036C39.024 35.164 39.024 35.308 39.024 35.468H38.544V35.708H38.64C38.64 35.836 38.624 35.964 38.592 36.092C38.592 36.188 38.576 36.3 38.544 36.428H38.688L38.544 37.148H38.928C38.896 37.276 38.864 37.404 38.832 37.532C38.8 37.628 38.752 37.74 38.688 37.868H38.16C38.16 37.9 38.144 37.932 38.112 37.964C38.112 37.996 38.112 38.044 38.112 38.108H39.264L38.976 38.828H35.76C35.728 38.956 35.664 39.084 35.568 39.212C35.504 39.308 35.44 39.42 35.376 39.548H42.144L42 39.788H44.928C44.864 39.916 44.784 40.044 44.688 40.172C44.624 40.268 44.544 40.38 44.448 40.508H38.448C38.416 40.54 38.384 40.572 38.352 40.604C38.32 40.636 38.288 40.684 38.256 40.748ZM25.776 20.828H27.216C27.12 20.796 27.008 20.78 26.88 20.78C26.784 20.78 26.672 20.78 26.544 20.78C26.416 20.78 26.288 20.78 26.16 20.78C26.032 20.78 25.904 20.796 25.776 20.828ZM64.4288 40.028H63.2768V40.508H65.0048V40.988H66.5887V41.708H65.4848V42.428H68.7008V43.148H63.4688V44.108H63.8528V44.204C63.8528 44.268 63.8368 44.316 63.8048 44.348C63.7408 44.668 63.6287 44.908 63.4688 45.068H63.0848C62.9568 45.196 62.8608 45.276 62.7968 45.308H64.4288C64.2688 45.436 64.0448 45.5 63.7568 45.5H58.3328C57.7888 45.5 57.2448 45.484 56.7008 45.452C56.1888 45.42 55.6928 45.372 55.2128 45.308H53.5807C53.3568 45.276 53.1328 45.244 52.9088 45.212C52.6848 45.148 52.4448 45.1 52.1888 45.068H52.5728C52.1568 44.972 51.7568 44.86 51.3728 44.732C51.0208 44.604 50.6688 44.476 50.3168 44.348H50.3648C50.2688 44.284 50.1728 44.236 50.0768 44.204C49.9808 44.172 49.9008 44.14 49.8368 44.108H49.4528C49.1968 43.948 48.9408 43.804 48.6848 43.676C48.4288 43.516 48.1728 43.34 47.9168 43.148H53.1968C53.0688 43.02 52.9248 42.908 52.7648 42.812C52.6368 42.684 52.5088 42.556 52.3808 42.428H49.1648L48.5408 41.708H49.6928C49.5968 41.58 49.5008 41.468 49.4048 41.372C49.3408 41.244 49.2768 41.116 49.2128 40.988H47.6288L47.3408 40.508H45.6128C45.5808 40.444 45.5488 40.364 45.5168 40.268C45.4848 40.172 45.4368 40.092 45.3728 40.028H46.5728L46.2848 39.308H47.2448L47.1008 38.828C47.0368 38.636 47.0048 38.476 47.0048 38.348H50.7968C50.7648 38.22 50.7328 38.108 50.7008 38.012C50.7008 37.884 50.7008 37.756 50.7008 37.628H45.2288C45.2288 37.564 45.2128 37.516 45.1808 37.484C45.1808 37.452 45.1808 37.42 45.1808 37.388H45.0368C45.0368 37.26 45.0208 37.148 44.9888 37.052C44.9888 36.924 44.9888 36.796 44.9888 36.668H44.8448C44.8448 36.54 44.8288 36.428 44.7968 36.332C44.7968 36.204 44.7968 36.076 44.7968 35.948H45.4688V35.708H45.0368V35.228H44.6528V34.268H45.2288V33.308H44.6528V32.588H45.0848V32.108H45.1328V31.388H45.3728V29.708H45.4688V28.988H45.7088V28.94H41.9168C41.4368 28.94 41.0528 28.716 40.7648 28.268H41.4848C41.3888 28.076 41.3408 27.868 41.3408 27.644V27.308H39.8048V26.588H40.1408V25.628H39.9008V25.148H39.9968V24.668H40.7168V24.428H39.5168V23.708H40.9568V22.988H40.6688V22.508H40.3328V21.788H40.0448V21.548H39.9008C39.9968 21.068 40.3008 20.748 40.8128 20.588H41.1008C41.1968 20.556 41.3248 20.54 41.4848 20.54H45.2768V20.348H45.4688V19.628H45.0848V19.148H45.0368V18.428H44.8448V18.188H43.6928V17.708H42.5888V17.468H42.9728V17.228H44.0768V16.268H44.5088V15.788H42.9728V15.308H45.3248V14.588H45.0848V14.348H44.5568V13.868H45.0368V13.628H44.5568V12.908H44.9888V12.716C44.9888 12.556 45.0208 12.38 45.0848 12.188H45.7088C45.9328 11.676 46.3328 11.42 46.9088 11.42H55.3088C55.8208 11.42 56.2208 11.676 56.5088 12.188H55.8848C55.9488 12.38 55.9808 12.556 55.9808 12.716V12.908H55.5488V13.628H56.0288V13.868H55.5488V14.348H56.0768V14.588H56.3168V15.308H53.9648V15.788H55.5008V16.268H55.0688V17.228H53.9648V17.468H53.5807V17.708H54.6848V18.188H55.8368V18.428H56.0288V19.148H56.0768V19.628H56.4608V20.348H56.2688V20.54H62.3168C62.4768 20.54 62.5888 20.556 62.6528 20.588H62.3648C62.8128 20.748 63.1168 21.068 63.2768 21.548H63.4208C63.4208 21.58 63.4208 21.612 63.4208 21.644C63.4528 21.676 63.4688 21.724 63.4688 21.788H63.7568V22.508H64.0928V22.988H64.3808V23.708H62.9408V24.428H64.1407V24.668H63.4208V25.148H63.3248V25.628H63.5648V26.588H63.2288V27.308H64.7648V27.644C64.7648 27.772 64.7488 27.884 64.7168 27.98C64.6848 28.076 64.6368 28.172 64.5728 28.268H63.9008C63.6128 28.716 63.2288 28.94 62.7488 28.94H56.7008V28.988H56.4608V29.708H56.3648V31.388H56.1248V32.108H56.0768V32.588H55.6448V33.308H56.2208V34.268H55.6448C55.6448 34.428 55.6448 34.588 55.6448 34.748C55.6768 34.908 55.7088 35.068 55.7408 35.228H56.1728C56.2368 35.42 56.3008 35.58 56.3648 35.708H56.7488L56.8928 35.948H56.2208C56.5728 36.396 57.1168 36.62 57.8528 36.62H62.2208C62.3808 36.62 62.4928 36.636 62.5568 36.668H62.7008C63.0848 36.764 63.3568 37.004 63.5168 37.388H63.6608C63.6608 37.42 63.6608 37.452 63.6608 37.484C63.6927 37.516 63.7087 37.564 63.7087 37.628H69.1808C69.1808 37.66 69.1808 37.708 69.1808 37.772C69.2128 37.804 69.2288 37.852 69.2288 37.916V38.348H65.3888V39.308H64.4288V40.028ZM95.3516 25.628H94.5356V26.348H94.7276V27.068H95.7836V27.548H95.2076V28.508H95.0636V28.748H95.2556V29.708H94.4876V30.188H92.9516V30.668H94.1036V31.388H94.8716V31.868H95.1116V32.828H95.2556V34.268H95.2076V34.988H95.1116V35.948H96.5996V36.668H94.2956V37.868H95.3036V38.108H95.6876V38.348H94.4876V39.068H94.1516V40.028H95.3036V40.988H94.9676V41.708H95.3036V42.188H95.2076V43.148H95.1596V44.108H95.2556V44.348H95.2076C95.1436 44.668 95.0316 44.908 94.8716 45.068H95.6876C95.4956 45.356 95.1756 45.5 94.7276 45.5H86.3276C85.9436 45.5 85.6236 45.356 85.3676 45.068H84.5516C84.3916 44.908 84.2796 44.668 84.2156 44.348H84.2636V44.108H84.1676V43.148H84.2156V42.62C84.1196 42.812 83.9916 42.988 83.8316 43.148H83.9276C83.6076 43.532 83.2716 43.852 82.9196 44.108H82.8236C82.7916 44.14 82.7436 44.172 82.6796 44.204C82.6156 44.236 82.5516 44.284 82.4876 44.348H82.3916C81.9756 44.636 81.5436 44.876 81.0956 45.068H81.9116C81.1436 45.42 80.3116 45.66 79.4156 45.788H78.7916C78.4076 45.852 78.0076 45.9 77.5916 45.932C77.2076 45.964 76.7916 45.98 76.3436 45.98C76.0236 45.98 75.7036 45.964 75.3836 45.932C75.0636 45.9 74.7276 45.852 74.3756 45.788H74.9996C74.2316 45.628 73.5116 45.388 72.8396 45.068H72.0236C71.5436 44.844 71.1276 44.604 70.7756 44.348H70.9196C70.8876 44.284 70.8396 44.236 70.7756 44.204C70.7116 44.172 70.6476 44.14 70.5836 44.108H70.6796C70.5196 43.948 70.3436 43.788 70.1516 43.628C69.9916 43.468 69.8316 43.308 69.6716 43.148H69.5756C69.4476 42.988 69.3196 42.828 69.1916 42.668C69.0636 42.508 68.9356 42.348 68.8076 42.188H68.9036C68.8716 42.124 68.8236 42.044 68.7596 41.948C68.6956 41.852 68.6316 41.772 68.5676 41.708H68.2316C68.1996 41.58 68.1356 41.468 68.0396 41.372C67.9756 41.244 67.9116 41.116 67.8476 40.988H68.2316C68.0716 40.636 67.9436 40.316 67.8476 40.028H66.6956C66.6636 39.868 66.6156 39.708 66.5516 39.548C66.4876 39.388 66.4396 39.228 66.4076 39.068H66.6956L66.5516 38.348H67.7516C67.7196 38.284 67.7036 38.204 67.7036 38.108H67.2716C67.2716 38.012 67.2556 37.932 67.2236 37.868H66.2636C66.2316 37.804 66.2156 37.724 66.2156 37.628C66.2156 37.532 66.1996 37.452 66.1676 37.388H68.7116C68.6796 37.26 68.6636 37.148 68.6636 37.052C68.6636 36.924 68.6476 36.796 68.6156 36.668H68.0396C68.0076 36.54 67.9916 36.428 67.9916 36.332C67.9916 36.204 67.9916 36.076 67.9916 35.948H67.1756V34.988H66.8876V34.268H66.7436V33.788H66.8396V31.868H66.6476V31.388H66.2156V30.668H66.7436V30.188H67.0796V29.708H67.1276V28.748H66.9356V28.508H67.0796V27.548H67.9916V27.068H67.1276V26.348H66.8396V25.628H66.6956V24.668H67.8956V24.188H68.7596V23.708H68.2796V23.228H67.2236V22.988H66.9356V22.508H66.8876V21.836C66.8876 21.772 66.8876 21.724 66.8876 21.692C66.9196 21.628 66.9356 21.58 66.9356 21.548H66.8876C67.0156 20.876 67.4316 20.54 68.1356 20.54H77.3036C78.0396 20.54 78.4556 20.876 78.5516 21.548H78.6476V22.508H78.6956V22.988H78.9836V23.228H80.0396V23.708H80.5196V24.188H79.6556V24.668H78.4556V25.628H78.5996V26.348H78.8876V27.068H79.7516V27.548H78.8396V28.508H78.6956V28.748H78.8876V29.708H78.8396V30.188H78.5036V30.668H77.9756V31.388H78.4076V31.868H78.5996V33.788H78.5036V34.268H78.6476V34.748C78.6476 34.844 78.6636 34.924 78.6956 34.988H78.9356C78.9356 35.34 78.9836 35.66 79.0796 35.948H79.8956C79.9916 36.204 80.1196 36.444 80.2796 36.668H80.9036C81.0636 36.86 81.2556 37.004 81.4796 37.1C81.7036 37.004 81.8796 36.86 82.0076 36.668H84.3116C84.4716 36.444 84.5996 36.204 84.6956 35.948H83.2556C83.3516 35.66 83.3996 35.34 83.3996 34.988H83.4956V34.268H83.5436V32.828H83.3996V31.868H83.1596V31.388H82.3916V30.668H81.2396V30.188H82.7756V29.708H83.5436V28.748H83.3516V28.508H83.4956V27.548H84.0716V27.068H83.0156V26.348H82.8236V25.628H83.6396V24.668H84.6476V24.188H85.8956V23.708H84.3116V23.228H83.4956V22.988H83.3036V22.508H83.4956V21.836C83.4956 21.708 83.5116 21.612 83.5436 21.548H83.2076C83.3676 20.876 83.7996 20.54 84.5036 20.54H93.6236C94.2956 20.54 94.7116 20.876 94.8716 21.548H95.1596C95.1916 21.612 95.2076 21.708 95.2076 21.836V22.508H95.0156V22.988H95.2076V23.228H96.0236V23.708H97.6076V24.188H96.3596V24.668H95.3516V25.628ZM126.447 37.868H124.527V38.348H124.671V38.828H130.671V39.788H128.319V40.268H125.055V40.988H130.143V41.468H127.311V41.708H126.927V42.668H125.247V43.148H126.783V43.628H125.391V44.204C125.391 44.268 125.375 44.332 125.343 44.396C125.343 44.46 125.343 44.524 125.343 44.588H126.495C126.495 44.62 126.463 44.7 126.399 44.828H126.783C126.559 45.276 126.191 45.5 125.679 45.5H117.519C117.039 45.5 116.655 45.276 116.367 44.828H115.983L115.839 44.588H114.687C114.655 44.524 114.639 44.444 114.639 44.348L114.255 44.588H114.687L114.303 44.828H115.791C115.279 45.116 114.703 45.356 114.063 45.548H113.823C113.663 45.58 113.487 45.612 113.295 45.644C113.135 45.708 112.975 45.756 112.815 45.788H112.575C112.223 45.852 111.855 45.9 111.471 45.932C111.119 45.964 110.751 45.98 110.367 45.98C109.951 45.98 109.551 45.964 109.167 45.932C108.783 45.9 108.415 45.852 108.063 45.788H108.303C108.143 45.756 107.967 45.708 107.775 45.644C107.583 45.612 107.407 45.58 107.247 45.548H107.487C106.815 45.356 106.207 45.116 105.663 44.828H104.175L103.743 44.588H103.311C103.087 44.428 102.863 44.284 102.639 44.156C102.447 43.996 102.255 43.82 102.063 43.628H103.503L103.023 43.148H100.047L99.6154 42.668H101.343C101.087 42.348 100.863 42.028 100.671 41.708H101.055L100.911 41.468H103.695C103.631 41.308 103.551 41.148 103.455 40.988H98.3674L98.0794 40.268H101.295L101.151 39.788H103.503L103.215 38.828H97.2154L97.0714 38.348H96.9754C96.9114 38.156 96.8794 37.996 96.8794 37.868H98.7514C98.7194 37.708 98.6874 37.548 98.6554 37.388C98.6234 37.228 98.5914 37.068 98.5594 36.908H101.439C101.407 36.844 101.391 36.764 101.391 36.668C101.391 36.572 101.391 36.492 101.391 36.428H99.9034C99.9034 36.3 99.8874 36.188 99.8554 36.092C99.8554 35.964 99.8554 35.836 99.8554 35.708H98.8954C98.8954 35.58 98.8954 35.468 98.8954 35.372C98.8954 35.244 98.8794 35.116 98.8474 34.988H98.7514V34.748C98.7514 34.62 98.7354 34.508 98.7034 34.412C98.7034 34.284 98.7034 34.156 98.7034 34.028H97.9834C97.9514 33.9 97.9354 33.788 97.9354 33.692C97.9354 33.564 97.9354 33.436 97.9354 33.308H98.8474V32.348H99.0874V32.108H99.1834V31.148H100.191V31.1C100.191 30.94 100.191 30.78 100.191 30.62C100.191 30.46 100.207 30.316 100.239 30.188H97.6474C97.6794 30.06 97.6954 29.948 97.6954 29.852C97.6954 29.724 97.7114 29.596 97.7434 29.468H99.7594V29.228H99.8554C99.8874 29.164 99.9034 29.084 99.9034 28.988C99.9034 28.892 99.9194 28.812 99.9514 28.748H100.095L100.239 28.028H99.1834L99.2794 27.788H99.1354C99.1674 27.66 99.1994 27.548 99.2314 27.452C99.2634 27.324 99.2954 27.196 99.3274 27.068H99.6154C99.6794 26.908 99.7274 26.748 99.7594 26.588C99.8234 26.396 99.8874 26.236 99.9514 26.108H99.8554L99.9514 25.868C100.015 25.708 100.079 25.548 100.143 25.388C100.239 25.196 100.335 25.036 100.431 24.908L100.863 24.188H100.383L100.719 23.708H100.095C100.223 23.58 100.351 23.42 100.479 23.228H102.159C102.223 23.164 102.287 23.084 102.351 22.988C102.447 22.892 102.543 22.812 102.639 22.748H100.959C101.183 22.524 101.359 22.364 101.487 22.268H102.975C103.327 21.98 103.663 21.74 103.983 21.548H103.455C104.095 21.164 104.783 20.844 105.519 20.588H104.799C105.951 20.236 107.119 20.06 108.303 20.06C109.519 20.06 110.655 20.236 111.711 20.588H112.431C113.135 20.812 113.791 21.132 114.399 21.548H116.943V20.588H115.887V19.628H117.327V18.908H117.279V17.948H115.167V17.468H115.599V16.988H115.935V16.748H115.647V16.508H115.503V16.268H115.455V16.028H115.311V15.788H115.215V14.828H114.207V13.868H115.311V13.628H115.455V12.668C115.455 12.54 115.487 12.38 115.551 12.188H116.031C116.255 11.676 116.655 11.42 117.231 11.42H126.111C126.687 11.42 127.087 11.676 127.311 12.188H126.783C126.879 12.316 126.927 12.492 126.927 12.716V13.628H126.783V13.868H125.679V14.828H126.687V15.788H126.783V16.028H126.927V16.268H126.975V16.508H127.119V16.748H127.407V16.988H127.071V17.468H126.639V17.948H128.751V18.908H128.799V19.628H127.359V20.588H128.415V21.548H126.111V22.268H125.871V22.748H127.551V23.228H125.871V23.708H126.447V24.188H126.975V24.908H126.927V26.108H127.023V27.068H126.735V27.788H126.831V28.028H127.887V28.748H129.039V29.228H127.695V29.468H126.831V30.188H127.743V31.148H124.815V32.108H125.151V32.348H126.591V32.588H127.023V33.308H126.543V34.028H127.215V34.748H127.263V34.988H126.735V35.708H127.119V36.428H131.199V36.908H126.447V37.868ZM113.487 36.428C113.551 36.524 113.615 36.62 113.679 36.716C113.743 36.78 113.807 36.844 113.871 36.908H110.991C111.375 37.228 111.903 37.388 112.575 37.388C113.215 37.388 113.743 37.228 114.159 36.908H118.911C118.975 36.844 119.039 36.78 119.103 36.716C119.199 36.62 119.263 36.524 119.295 36.428H115.215C115.311 36.236 115.407 35.996 115.503 35.708H115.119C115.151 35.58 115.167 35.468 115.167 35.372C115.199 35.244 115.215 35.116 115.215 34.988H115.791V34.748H115.743V34.604C115.743 34.508 115.743 34.412 115.743 34.316C115.743 34.22 115.759 34.124 115.791 34.028H115.119V33.308H115.599V32.588H115.215V32.348H113.727V32.108H113.439C113.407 31.948 113.391 31.788 113.391 31.628C113.391 31.468 113.375 31.308 113.343 31.148H116.271V31.052C116.239 30.7 116.191 30.412 116.127 30.188H115.215C115.119 29.868 115.007 29.628 114.879 29.468H115.743C115.711 29.404 115.647 29.324 115.551 29.228H116.895C116.671 29.004 116.383 28.844 116.031 28.748H114.879C114.751 28.716 114.607 28.7 114.447 28.7C114.319 28.668 114.175 28.652 114.015 28.652C113.855 28.652 113.711 28.668 113.583 28.7C113.455 28.7 113.327 28.716 113.199 28.748H113.055C112.703 28.844 112.415 29.004 112.191 29.228H112.095C112.063 29.292 111.999 29.372 111.903 29.468H109.935C109.807 29.628 109.695 29.868 109.599 30.188H112.143C112.111 30.316 112.079 30.476 112.047 30.668C112.015 30.828 111.983 30.988 111.951 31.148H110.991V31.436C110.959 31.532 110.943 31.644 110.943 31.772C110.943 31.868 110.927 31.98 110.895 32.108H110.799V32.348H110.607V32.588C110.575 32.812 110.575 33.052 110.607 33.308H109.695V34.028H110.463C110.463 34.124 110.463 34.22 110.463 34.316C110.463 34.412 110.479 34.508 110.511 34.604V34.748C110.543 34.812 110.559 34.892 110.559 34.988H110.655L110.799 35.708H111.759C111.823 35.996 111.919 36.236 112.047 36.428H113.487ZM160.342 22.508H156.454L156.358 22.748H160.39L159.958 23.708H158.086L157.702 24.668H158.71L158.326 25.628H156.742L156.55 26.108H157.75L157.558 26.588H157.27L157.174 26.828H157.126L156.79 27.548H157.27L156.982 28.268H153.574L153.334 28.748H155.974L155.878 28.988H151.558L151.366 29.468H150.982L150.55 30.428H156.886L156.79 30.668H155.686L155.446 31.148H155.782L155.686 31.388H155.398L154.966 32.348L154.678 33.068H154.102L153.766 33.788H154.15L153.814 34.508H153.958L153.862 34.748H153.814L153.622 35.228H153.862L153.67 35.708H153.43L153.238 36.188H153.19L152.902 36.908H153.19L153.094 37.148H152.806L152.47 37.868H150.694L150.262 38.828H151.414L151.222 39.308H152.614L152.23 40.268H150.646L150.454 40.748H151.222L150.838 41.708H150.598L150.166 42.668H150.502L150.31 43.148H150.214L149.974 43.628H149.878L149.542 44.348H149.686L149.35 45.068H148.966L148.63 45.788H147.958L147.718 46.268H151.222L150.838 47.228H147.286L146.854 48.188H148.822L148.39 49.148H150.358L149.926 50.108H150.022L149.638 51.068H143.59L143.35 51.548H144.742L144.55 52.028H146.662L146.422 52.508H141.622L141.382 52.988H143.878L143.686 53.468C143.526 53.884 143.254 54.204 142.87 54.428H140.854C140.598 54.556 140.326 54.62 140.038 54.62H132.166C131.878 54.62 131.67 54.556 131.542 54.428H133.51C133.222 54.204 133.078 53.932 133.078 53.612V53.468C133.078 53.34 133.094 53.228 133.126 53.132L133.174 52.988H130.678L130.918 52.508H135.718L135.91 52.028H133.798L133.99 51.548H132.646L132.838 51.068H138.886L139.318 50.108H139.222L139.606 49.148H137.638L138.022 48.188H136.102L136.486 47.228H140.038L140.422 46.268H136.918L137.11 45.788H137.83L138.118 45.068H138.55L138.838 44.348H138.742L138.934 43.916L138.79 43.628H138.886L138.694 43.148H138.838L138.598 42.668H138.262L137.878 41.708H138.118L137.686 40.748H136.918L136.678 40.268H138.262L137.878 39.308H136.438L136.246 38.828H135.094L134.71 37.868H136.486L136.198 37.148H136.486L136.39 36.908H136.054L135.766 36.188H135.814L135.622 35.708H135.814L135.622 35.228H135.334L135.142 34.748H135.19L135.094 34.508H134.95L134.662 33.788H134.326L133.99 33.068H134.566L134.278 32.348H133.606L133.222 31.388H133.75L133.606 31.148H134.374L134.134 30.668H132.934L132.79 30.428H132.742L132.31 29.468H126.31L126.07 28.988H129.67L129.574 28.748H129.766L129.526 28.268H131.926L131.59 27.548H132.022L131.734 26.828H131.83L131.734 26.588H131.686L131.494 26.108H131.35L131.11 25.628H131.59L131.206 24.668H129.91L129.478 23.708H130.486L130.102 22.748H127.51L127.414 22.508H131.206L131.014 22.028C130.982 21.932 130.966 21.82 130.966 21.692C130.966 21.628 130.982 21.58 131.014 21.548H131.686C131.846 20.876 132.23 20.54 132.838 20.54H140.95C141.398 20.54 141.734 20.652 141.958 20.876C142.182 21.068 142.342 21.292 142.438 21.548H141.766C141.766 21.58 141.766 21.612 141.766 21.644C141.798 21.644 141.814 21.66 141.814 21.692L141.958 22.028L142.102 22.508H138.262L138.358 22.748H140.95L141.334 23.708H140.326L140.662 24.668H141.958L142.294 25.628H141.814L142.006 26.108H142.15L142.438 26.828H142.342L142.582 27.548H142.198L142.438 28.268H140.086L140.23 28.748H140.038L140.134 28.988H136.582L136.726 29.468H140.95L141.142 28.988H145.462L145.558 28.748H142.918L143.11 28.268H146.47L146.758 27.548H146.278L146.566 26.828H146.614L146.71 26.588H146.998L147.142 26.108H145.942L146.134 25.628H147.67L148.054 24.668H146.998L147.382 23.708H149.254L149.59 22.748H145.558L145.654 22.508H149.542L149.734 22.028L149.83 21.692C149.862 21.66 149.878 21.612 149.878 21.548H148.294C148.454 21.292 148.646 21.068 148.87 20.876C149.126 20.652 149.462 20.54 149.878 20.54H157.894C158.182 20.54 158.438 20.652 158.662 20.876C158.886 21.068 158.998 21.292 158.998 21.548H160.582C160.582 21.74 160.566 21.9 160.534 22.028L160.342 22.508ZM146.47 30.668L146.518 30.428H143.206L143.302 30.668H144.502L144.694 31.148H143.974L144.07 31.388H143.542L143.878 32.348H144.55L144.646 32.636L144.742 32.348L145.078 31.388H145.414L145.51 31.148H145.174L145.318 30.668H146.47Z" fill="#FF9720"/>
<path d="M196.976 20.348V20.492C196.976 20.78 196.88 21.052 196.688 21.308H203.312C203.088 21.628 202.752 21.788 202.304 21.788H188.576V22.028H184.928V22.748H183.296V23.708H184.928V24.428H184.496V25.148H184.304V25.34H197.072C197.392 25.34 197.664 25.436 197.888 25.628H197.984C198.144 25.756 198.272 25.916 198.368 26.108H198.08C198.176 26.236 198.224 26.412 198.224 26.636V27.068H198.032V27.308H199.28V28.268H198.176V28.748H198.464V29.468H198.608V29.708H199.04V30.428H198.32V30.668H195.872V31.628H195.296V32.348H198.944V33.308H197.6V33.884C197.6 34.044 197.584 34.172 197.552 34.268H197.456C197.328 34.62 197.136 34.86 196.88 34.988H195.92C195.76 35.116 195.536 35.18 195.248 35.18H182.48V35.708H183.92V36.188H186.08V36.908H181.568V37.388H185.696V38.108H182.576V38.348H184.976V39.308H183.632V40.268H184.256V40.508H183.968V41.468H184.736V41.708H184.4V41.948H183.728V42.428H184.4V42.908H183.728V43.628H185.984V43.868H187.472V44.204C187.472 44.236 187.456 44.268 187.424 44.3C187.424 44.3 187.424 44.316 187.424 44.348H191.456C191.456 44.444 191.44 44.524 191.408 44.588H184.688C184.624 44.876 184.448 45.116 184.16 45.308H187.616C187.456 45.436 187.232 45.5 186.944 45.5H177.776C177.488 45.5 177.264 45.436 177.104 45.308H173.6C173.376 45.148 173.2 44.908 173.072 44.588H179.744C179.744 44.492 179.728 44.412 179.696 44.348H175.712V43.868H174.224V43.628H171.968V42.908H172.64V42.428H171.968V41.948H172.64V41.708H172.976V41.468H172.208V40.508H172.496V40.268H171.872V39.308H173.216V38.348H170.816V38.108H173.936V37.388H169.808V36.908H174.32V36.188H172.16V35.708H170.72V34.988H171.68V34.268H171.776V33.308H173.12V32.348H169.472V31.628H170.048V30.668H172.496V30.428H173.216V29.708H172.784V29.468H172.64V28.748H172.352V28.268H173.456V27.308H172.208V27.068H172.4V26.108H172.64V25.628H172.544V25.148H172.736V24.428H173.168V23.708H171.536V22.748H173.168V22.028H176.816V21.308H170.192V20.348H177.488V19.628H170.432V19.148H170.624V18.668H174.704V17.708H172.928V16.748H173.744V15.788H172.496V14.828H172.64V14.108H172.208V13.388H172.448V13.196C172.448 13.068 172.464 12.972 172.496 12.908H170.576C170.608 12.748 170.656 12.62 170.72 12.524C170.816 12.396 170.912 12.284 171.008 12.188H170.624C170.88 11.996 171.152 11.9 171.44 11.9H195.632C195.952 11.9 196.224 11.996 196.448 12.188H196.832C197.056 12.348 197.216 12.588 197.312 12.908H199.184C199.216 12.972 199.232 13.068 199.232 13.196V13.388H198.992V14.108H199.424V14.828H199.28V15.788H200.528V16.748H199.712V17.708H201.488V18.668H197.408V19.148H197.216V19.628H204.272V20.348H196.976ZM227.687 42.908V43.388H231.863V44.204C231.863 44.268 231.847 44.316 231.815 44.348H229.559C229.495 44.796 229.287 45.116 228.935 45.308H228.503C228.343 45.436 228.119 45.5 227.831 45.5H219.431C219.143 45.5 218.919 45.436 218.759 45.308H219.143C218.823 45.084 218.631 44.764 218.567 44.348H220.871V43.388H218.951C218.791 43.548 218.615 43.708 218.423 43.868C218.263 44.028 218.087 44.188 217.895 44.348H217.367C216.791 44.764 216.215 45.084 215.639 45.308H214.103C213.879 45.404 213.623 45.484 213.335 45.548C213.079 45.644 212.807 45.724 212.519 45.788H212.135C211.815 45.852 211.479 45.9 211.127 45.932C210.807 45.964 210.471 45.98 210.119 45.98C209.735 45.98 209.351 45.964 208.967 45.932C208.615 45.9 208.263 45.852 207.911 45.788H208.295C207.975 45.724 207.655 45.644 207.335 45.548C207.047 45.484 206.759 45.404 206.471 45.308H207.959C207.255 45.052 206.615 44.732 206.039 44.348H206.567C206.343 44.188 206.135 44.028 205.943 43.868C205.751 43.708 205.559 43.548 205.367 43.388H202.967L202.535 42.908C202.503 42.844 202.455 42.764 202.391 42.668C202.327 42.572 202.263 42.492 202.199 42.428H203.639C203.575 42.3 203.495 42.188 203.399 42.092C203.335 41.964 203.271 41.836 203.207 41.708H202.775C202.775 41.676 202.743 41.596 202.679 41.468H202.247L202.103 41.228H202.151L201.863 40.508H201.623C201.591 40.38 201.559 40.268 201.527 40.172C201.495 40.044 201.463 39.916 201.431 39.788H199.607C199.511 39.436 199.463 39.116 199.463 38.828H201.047V38.348C201.047 38.188 201.047 38.028 201.047 37.868C201.047 37.676 201.063 37.516 201.095 37.388H202.535C202.567 37.228 202.599 37.068 202.631 36.908C202.663 36.716 202.695 36.556 202.727 36.428H201.383L201.479 36.188H201.527L201.623 35.948H201.575C201.639 35.82 201.703 35.708 201.767 35.612C201.831 35.484 201.879 35.356 201.911 35.228H199.079L199.367 34.748H198.311C198.407 34.652 198.471 34.572 198.503 34.508H200.231C200.295 34.444 200.359 34.364 200.423 34.268C200.487 34.172 200.551 34.092 200.615 34.028H200.711C201.031 33.644 201.367 33.324 201.719 33.068H197.783C198.007 32.908 198.247 32.748 198.503 32.588C198.727 32.396 198.967 32.236 199.223 32.108H201.863L202.295 31.868H203.639C203.703 31.804 203.783 31.756 203.879 31.724C203.975 31.692 204.055 31.66 204.119 31.628H204.695C205.271 31.34 205.895 31.1 206.567 30.908H209.495C209.943 30.748 210.391 30.62 210.839 30.524C211.319 30.396 211.815 30.284 212.327 30.188H211.127L211.895 30.044L216.983 29.228V28.988H219.431V28.748H214.823V28.508H217.559C217.559 28.348 217.559 28.22 217.559 28.124C217.559 27.996 217.543 27.884 217.511 27.788C217.479 27.5 217.367 27.26 217.175 27.068H216.359C216.327 27.036 216.247 26.988 216.119 26.924L215.783 27.068H214.967C214.839 27.164 214.711 27.276 214.583 27.404C214.455 27.5 214.311 27.628 214.151 27.788H214.199C213.847 28.14 213.399 28.316 212.855 28.316H204.695C204.215 28.316 203.895 28.14 203.735 27.788H203.687C203.591 27.628 203.559 27.452 203.591 27.26V27.068H204.359C204.391 27.004 204.407 26.924 204.407 26.828H201.335C201.335 26.7 201.367 26.54 201.431 26.348H208.343C208.343 26.316 208.375 26.236 208.439 26.108H204.167C204.263 25.788 204.407 25.468 204.599 25.148H205.415C205.511 24.988 205.623 24.828 205.751 24.668C205.879 24.508 206.007 24.348 206.135 24.188H202.535L202.967 23.708H209.927C210.055 23.58 210.183 23.468 210.311 23.372C210.471 23.244 210.615 23.116 210.743 22.988H206.327L206.615 22.748H205.271C205.431 22.62 205.607 22.508 205.799 22.412C205.991 22.284 206.183 22.156 206.375 22.028H208.631C209.303 21.644 210.007 21.324 210.743 21.068H211.079C211.943 20.748 212.903 20.508 213.959 20.348C215.047 20.156 216.231 20.06 217.511 20.06C220.135 20.06 222.359 20.396 224.183 21.068H223.799C224.151 21.196 224.487 21.34 224.807 21.5C225.159 21.66 225.495 21.836 225.815 22.028H223.559L224.567 22.748H225.911L226.199 22.988H230.615L231.335 23.708H224.375C224.439 23.772 224.503 23.852 224.567 23.948C224.631 24.044 224.695 24.124 224.759 24.188H228.311C228.439 24.316 228.551 24.476 228.647 24.668C228.775 24.828 228.871 24.988 228.935 25.148H228.167L228.599 26.108H232.871C232.935 26.236 232.967 26.316 232.967 26.348H226.055C226.119 26.412 226.151 26.492 226.151 26.588C226.183 26.684 226.215 26.764 226.247 26.828H227.831C227.831 26.86 227.831 26.892 227.831 26.924C227.863 26.956 227.879 27.004 227.879 27.068H228.695L228.983 28.508H226.199C226.199 28.54 226.199 28.572 226.199 28.604C226.231 28.636 226.247 28.684 226.247 28.748H230.855V28.988H228.455V29.228C228.487 29.388 228.503 29.548 228.503 29.708C228.503 29.868 228.503 30.028 228.503 30.188H229.751V30.908H226.775V31.628H226.247V31.868H224.951V32.108H222.311V33.068H226.247V34.028H226.151V34.508H224.423V34.748H225.479V35.228H228.647V35.948H228.071V36.428H228.455V37.388H228.167V38.828H226.583V39.788H228.407V40.508H228.647V41.468H229.079V41.708H229.463V42.428H227.975V42.908H227.687ZM213.767 26.78C213.543 26.78 213.383 26.796 213.287 26.828H214.295C214.199 26.796 214.023 26.78 213.767 26.78ZM214.103 35.132L213.671 35.228H214.103V35.132ZM212.471 36.428H213.815C213.463 36.684 213.287 37.004 213.287 37.388H211.847V37.532C211.847 37.852 211.959 38.124 212.183 38.348C212.343 38.572 212.663 38.732 213.143 38.828H214.295C214.775 38.732 215.191 38.572 215.543 38.348C215.831 38.092 216.103 37.772 216.359 37.388H216.599C216.663 37.228 216.727 37.084 216.791 36.956C216.855 36.796 216.903 36.62 216.935 36.428H216.551C216.551 36.364 216.551 36.316 216.551 36.284C216.583 36.252 216.599 36.22 216.599 36.188H216.647V35.948H217.223C217.255 35.82 217.271 35.708 217.271 35.612C217.271 35.484 217.271 35.356 217.271 35.228H216.455L214.103 35.756C213.975 35.788 213.847 35.82 213.719 35.852C213.623 35.884 213.527 35.916 213.431 35.948C213.335 35.98 213.239 36.012 213.143 36.044C213.047 36.076 212.967 36.124 212.903 36.188H212.855C212.791 36.22 212.727 36.252 212.663 36.284C212.599 36.316 212.535 36.364 212.471 36.428ZM212.711 38.828H211.511C211.639 38.86 211.831 38.876 212.087 38.876C212.183 38.876 212.279 38.876 212.375 38.876C212.503 38.876 212.615 38.86 212.711 38.828ZM259.178 29.948H262.442C262.442 29.98 262.426 30.012 262.394 30.044C262.362 30.076 262.33 30.124 262.298 30.188H261.194C260.938 30.508 260.586 30.668 260.138 30.668H250.778C250.33 30.668 249.978 30.508 249.722 30.188H250.826L250.682 29.948H247.37L247.226 29.708C247.194 29.58 247.114 29.42 246.986 29.228H246.17C245.978 28.876 245.77 28.636 245.546 28.508H246.746C246.49 28.348 246.186 28.268 245.834 28.268C245.45 28.268 245.13 28.348 244.874 28.508H243.866C243.61 28.636 243.402 28.876 243.242 29.228H242.81C242.746 29.356 242.682 29.516 242.618 29.708H245.21C245.178 29.772 245.162 29.852 245.162 29.948H246.458C246.426 30.012 246.41 30.092 246.41 30.188H247.994C247.962 30.252 247.946 30.332 247.946 30.428C247.946 30.524 247.93 30.604 247.898 30.668H248.09V30.908H246.218V31.388H240.218V31.628H249.434C249.402 31.788 249.386 31.948 249.386 32.108C249.386 32.268 249.386 32.428 249.386 32.588H240.89V32.828H244.298V33.068H243.386V34.028H240.794C240.794 34.156 240.794 34.284 240.794 34.412C240.794 34.508 240.81 34.62 240.842 34.748V35.228H243.722C243.722 35.452 243.738 35.612 243.77 35.708H241.13C241.194 36.124 241.258 36.444 241.322 36.668H240.794C240.986 37.116 241.258 37.436 241.61 37.628H243.194C243.45 37.724 243.722 37.772 244.01 37.772C244.362 37.772 244.65 37.724 244.874 37.628H245.546C245.834 37.468 246.106 37.148 246.362 36.668H245.066L245.21 36.332C245.274 36.204 245.338 36.092 245.402 35.996C245.498 35.868 245.578 35.772 245.642 35.708H249.002C249.29 35.484 249.61 35.372 249.962 35.372H259.322C259.642 35.372 259.946 35.484 260.234 35.708H256.874C257.194 35.964 257.322 36.284 257.258 36.668H258.554C258.522 36.796 258.49 36.94 258.458 37.1C258.458 37.26 258.426 37.436 258.362 37.628H257.642L257.498 38.108H260.57L260.474 38.348H259.466L259.37 38.588H254.042L253.898 38.828H259.706L259.178 39.788H259.658L259.514 40.028H255.914C255.818 40.188 255.706 40.348 255.578 40.508C255.482 40.668 255.37 40.828 255.242 40.988H254.378C254.346 41.02 254.314 41.052 254.282 41.084C254.25 41.116 254.218 41.164 254.186 41.228H257.498C257.466 41.26 257.434 41.292 257.402 41.324C257.37 41.356 257.338 41.404 257.306 41.468H254.906C254.874 41.5 254.842 41.532 254.81 41.564C254.778 41.596 254.73 41.644 254.666 41.708H256.682L256.202 42.188H255.962L255.722 42.428H256.298L255.722 42.908H256.586C256.426 43.036 256.25 43.164 256.058 43.292C255.898 43.388 255.722 43.5 255.53 43.628H256.49L256.106 43.868H255.05L254.186 44.348H254.474C253.962 44.636 253.386 44.876 252.746 45.068H251.93C251.642 45.164 251.354 45.26 251.066 45.356C250.778 45.42 250.49 45.484 250.202 45.548H249.77C249.546 45.58 249.322 45.612 249.098 45.644C248.874 45.708 248.65 45.756 248.426 45.788H249.386C248.938 45.852 248.474 45.9 247.994 45.932C247.514 45.964 247.018 45.98 246.506 45.98C246.026 45.98 245.562 45.964 245.114 45.932C244.666 45.9 244.218 45.852 243.77 45.788H242.762C242.538 45.756 242.314 45.708 242.09 45.644C241.898 45.612 241.69 45.58 241.466 45.548H241.898C241.61 45.484 241.322 45.42 241.034 45.356C240.746 45.26 240.474 45.164 240.218 45.068H241.034C240.426 44.876 239.866 44.636 239.354 44.348H239.018C238.89 44.284 238.746 44.22 238.586 44.156C238.458 44.06 238.33 43.964 238.202 43.868H239.21L238.826 43.628H237.866L236.906 42.908H236.09C235.994 42.844 235.898 42.764 235.802 42.668C235.706 42.572 235.626 42.492 235.562 42.428H234.938L234.698 42.188H234.938L234.458 41.708H232.49C232.394 41.612 232.33 41.532 232.298 41.468H234.698C234.602 41.372 234.538 41.292 234.506 41.228H231.146C231.114 41.164 231.05 41.084 230.954 40.988H231.818C231.69 40.828 231.578 40.668 231.482 40.508C231.386 40.348 231.29 40.188 231.194 40.028H234.794L234.65 39.788H234.17C234.074 39.628 233.978 39.468 233.882 39.308C233.818 39.148 233.754 38.988 233.69 38.828H227.93L227.834 38.588H233.162L233.066 38.348H234.074L233.978 38.108H230.906L230.762 37.628H229.178C229.146 37.468 229.114 37.308 229.082 37.148C229.05 36.988 229.018 36.828 228.986 36.668H229.466L229.322 35.708H231.962V35.228H229.082V34.988C229.05 34.828 229.034 34.668 229.034 34.508C229.034 34.348 229.034 34.188 229.034 34.028H231.626V33.068H232.538V32.828H229.13V32.588H237.626V31.628H228.458V31.388H234.458V30.908H236.33V30.668H236.138C236.17 30.604 236.186 30.524 236.186 30.428C236.186 30.332 236.186 30.252 236.186 30.188H234.65V29.948H233.354C233.354 29.852 233.37 29.772 233.402 29.708H230.81C230.874 29.516 230.906 29.356 230.906 29.228H231.386L231.53 28.508H232.538L232.826 27.548H232.922C232.954 27.42 233.002 27.308 233.066 27.212C233.13 27.084 233.178 26.956 233.21 26.828H232.97C233.034 26.668 233.098 26.508 233.162 26.348C233.258 26.156 233.354 25.996 233.45 25.868H233.162C233.226 25.74 233.29 25.628 233.354 25.532C233.45 25.404 233.546 25.276 233.642 25.148H233.69C233.818 24.988 233.946 24.828 234.074 24.668C234.202 24.476 234.33 24.316 234.458 24.188H234.506C234.698 23.932 234.938 23.692 235.226 23.468H234.986L235.274 23.228H235.178L235.466 22.988H237.242C237.306 22.924 237.37 22.876 237.434 22.844C237.498 22.812 237.546 22.78 237.578 22.748H236.522C236.586 22.684 236.65 22.636 236.714 22.604C236.778 22.572 236.826 22.54 236.858 22.508H236.474C237.05 22.124 237.61 21.804 238.154 21.548H239.114C239.306 21.452 239.498 21.372 239.69 21.308C239.882 21.212 240.074 21.132 240.266 21.068H239.162C239.29 21.004 239.402 20.956 239.498 20.924C239.626 20.892 239.754 20.86 239.882 20.828H239.834C239.994 20.764 240.138 20.716 240.266 20.684C240.426 20.652 240.57 20.62 240.698 20.588H240.554C241.962 20.236 243.434 20.06 244.97 20.06C245.834 20.06 246.65 20.108 247.418 20.204C248.186 20.3 248.906 20.428 249.578 20.588H249.722C249.882 20.62 250.026 20.652 250.154 20.684C250.314 20.716 250.458 20.764 250.586 20.828H250.634C250.762 20.86 250.874 20.892 250.97 20.924C251.098 20.956 251.226 21.004 251.354 21.068H252.458C252.938 21.228 253.338 21.388 253.658 21.548H252.65C252.97 21.676 253.274 21.836 253.562 22.028C253.85 22.188 254.138 22.348 254.426 22.508H254.81C254.874 22.54 254.938 22.572 255.002 22.604C255.066 22.636 255.114 22.684 255.146 22.748H256.202C256.266 22.78 256.314 22.812 256.346 22.844C256.41 22.876 256.474 22.924 256.538 22.988H254.762L255.05 23.228H255.146L255.434 23.468H255.626C255.786 23.596 255.93 23.724 256.058 23.852C256.186 23.948 256.314 24.06 256.442 24.188H256.394C256.554 24.348 256.698 24.508 256.826 24.668C256.986 24.828 257.13 24.988 257.258 25.148H257.21C257.306 25.276 257.402 25.404 257.498 25.532C257.594 25.628 257.674 25.74 257.738 25.868H258.026C258.154 26.028 258.266 26.188 258.362 26.348C258.458 26.508 258.538 26.668 258.602 26.828H258.89C258.954 26.956 259.018 27.084 259.082 27.212C259.146 27.308 259.194 27.42 259.226 27.548H259.178C259.242 27.708 259.306 27.868 259.37 28.028C259.434 28.188 259.482 28.348 259.514 28.508H258.314L258.458 29.228H259.274V29.708L259.178 29.948ZM285.054 40.028H283.902V40.508H285.63V40.988H287.214V41.708H286.11V42.428H289.326V43.148H284.094V44.108H284.478V44.204C284.478 44.268 284.462 44.316 284.43 44.348C284.366 44.668 284.254 44.908 284.094 45.068H283.71C283.582 45.196 283.486 45.276 283.422 45.308H285.054C284.894 45.436 284.67 45.5 284.382 45.5H278.958C278.414 45.5 277.87 45.484 277.326 45.452C276.814 45.42 276.318 45.372 275.838 45.308H274.206C273.982 45.276 273.758 45.244 273.534 45.212C273.31 45.148 273.07 45.1 272.814 45.068H273.198C272.782 44.972 272.382 44.86 271.998 44.732C271.646 44.604 271.294 44.476 270.942 44.348H270.99C270.894 44.284 270.798 44.236 270.702 44.204C270.606 44.172 270.526 44.14 270.462 44.108H270.078C269.822 43.948 269.566 43.804 269.31 43.676C269.054 43.516 268.798 43.34 268.542 43.148H273.822C273.694 43.02 273.55 42.908 273.39 42.812C273.262 42.684 273.134 42.556 273.006 42.428H269.79L269.166 41.708H270.318C270.222 41.58 270.126 41.468 270.03 41.372C269.966 41.244 269.902 41.116 269.838 40.988H268.254L267.966 40.508H266.238C266.206 40.444 266.174 40.364 266.142 40.268C266.11 40.172 266.062 40.092 265.998 40.028H267.198L266.91 39.308H267.87L267.726 38.828C267.662 38.636 267.63 38.476 267.63 38.348H271.422C271.39 38.22 271.358 38.108 271.326 38.012C271.326 37.884 271.326 37.756 271.326 37.628H265.854C265.854 37.564 265.838 37.516 265.806 37.484C265.806 37.452 265.806 37.42 265.806 37.388H265.662C265.662 37.26 265.646 37.148 265.614 37.052C265.614 36.924 265.614 36.796 265.614 36.668H265.47C265.47 36.54 265.454 36.428 265.422 36.332C265.422 36.204 265.422 36.076 265.422 35.948H266.094V35.708H265.662V35.228H265.278V34.268H265.854V33.308H265.278V32.588H265.71V32.108H265.758V31.388H265.998V29.708H266.094V28.988H266.334V28.94H262.542C262.062 28.94 261.678 28.716 261.39 28.268H262.11C262.014 28.076 261.966 27.868 261.966 27.644V27.308H260.43V26.588H260.766V25.628H260.526V25.148H260.622V24.668H261.342V24.428H260.142V23.708H261.582V22.988H261.294V22.508H260.958V21.788H260.67V21.548H260.526C260.622 21.068 260.926 20.748 261.438 20.588H261.726C261.822 20.556 261.95 20.54 262.11 20.54H265.902V20.348H266.094V19.628H265.71V19.148H265.662V18.428H265.47V18.188H264.318V17.708H263.214V17.468H263.598V17.228H264.702V16.268H265.134V15.788H263.598V15.308H265.95V14.588H265.71V14.348H265.182V13.868H265.662V13.628H265.182V12.908H265.614V12.716C265.614 12.556 265.646 12.38 265.71 12.188H266.334C266.558 11.676 266.958 11.42 267.534 11.42H275.934C276.446 11.42 276.846 11.676 277.134 12.188H276.51C276.574 12.38 276.606 12.556 276.606 12.716V12.908H276.174V13.628H276.654V13.868H276.174V14.348H276.702V14.588H276.942V15.308H274.59V15.788H276.126V16.268H275.694V17.228H274.59V17.468H274.206V17.708H275.31V18.188H276.462V18.428H276.654V19.148H276.702V19.628H277.086V20.348H276.894V20.54H282.942C283.102 20.54 283.214 20.556 283.278 20.588H282.99C283.438 20.748 283.742 21.068 283.902 21.548H284.046C284.046 21.58 284.046 21.612 284.046 21.644C284.078 21.676 284.094 21.724 284.094 21.788H284.382V22.508H284.718V22.988H285.006V23.708H283.566V24.428H284.766V24.668H284.046V25.148H283.95V25.628H284.19V26.588H283.854V27.308H285.39V27.644C285.39 27.772 285.374 27.884 285.342 27.98C285.31 28.076 285.262 28.172 285.198 28.268H284.526C284.238 28.716 283.854 28.94 283.374 28.94H277.326V28.988H277.086V29.708H276.99V31.388H276.75V32.108H276.702V32.588H276.27V33.308H276.846V34.268H276.27C276.27 34.428 276.27 34.588 276.27 34.748C276.302 34.908 276.334 35.068 276.366 35.228H276.798C276.862 35.42 276.926 35.58 276.99 35.708H277.374L277.518 35.948H276.846C277.198 36.396 277.742 36.62 278.478 36.62H282.846C283.006 36.62 283.118 36.636 283.182 36.668H283.326C283.71 36.764 283.982 37.004 284.142 37.388H284.286C284.286 37.42 284.286 37.452 284.286 37.484C284.318 37.516 284.334 37.564 284.334 37.628H289.806C289.806 37.66 289.806 37.708 289.806 37.772C289.838 37.804 289.854 37.852 289.854 37.916V38.348H286.014V39.308H285.054V40.028ZM318.953 31.628C318.985 31.788 319.001 31.948 319.001 32.108C319.001 32.268 319.001 32.428 319.001 32.588H315.593V33.068H313.625V33.548H315.497V33.788H313.337V34.508H312.137V34.748H314.825C314.825 34.844 314.809 34.924 314.777 34.988H314.633V35.228H315.065V35.276C315.065 35.404 315.049 35.548 315.017 35.708C315.017 35.868 315.001 36.028 314.969 36.188H314.633L314.489 37.148H315.209C315.209 37.276 315.177 37.436 315.113 37.628H314.969C314.937 37.756 314.905 37.884 314.873 38.012C314.841 38.108 314.809 38.22 314.777 38.348H315.161C315.129 38.508 315.081 38.668 315.017 38.828C314.953 38.988 314.889 39.148 314.825 39.308H314.105L313.913 39.788H314.009C313.945 39.916 313.913 39.996 313.913 40.028H313.721C313.593 40.348 313.417 40.668 313.193 40.988H313.289C313.257 41.052 313.209 41.132 313.145 41.228C313.081 41.324 313.017 41.404 312.953 41.468H312.905L312.329 42.188C312.297 42.22 312.265 42.252 312.233 42.284C312.201 42.316 312.153 42.364 312.089 42.428H311.849C311.721 42.556 311.593 42.684 311.465 42.812C311.337 42.908 311.193 43.02 311.033 43.148H309.593L308.585 43.868H308.777C308.713 43.9 308.649 43.932 308.585 43.964C308.521 43.996 308.457 44.044 308.393 44.108H308.057C307.993 44.14 307.913 44.172 307.817 44.204C307.721 44.236 307.641 44.284 307.577 44.348H310.169C310.009 44.444 309.833 44.54 309.641 44.636C309.449 44.7 309.257 44.764 309.065 44.828H308.249C308.025 44.924 307.785 45.02 307.529 45.116C307.273 45.18 307.017 45.244 306.761 45.308H306.953C306.569 45.404 306.169 45.484 305.753 45.548C305.337 45.644 304.905 45.724 304.457 45.788H305.945C305.433 45.852 304.905 45.9 304.361 45.932C303.817 45.964 303.257 45.98 302.681 45.98C302.073 45.98 301.497 45.964 300.953 45.932C300.441 45.9 299.913 45.852 299.369 45.788H297.833C297.417 45.724 296.985 45.644 296.537 45.548C296.121 45.484 295.721 45.404 295.337 45.308H295.193C294.937 45.244 294.681 45.18 294.425 45.116C294.201 45.02 293.961 44.924 293.705 44.828H294.473C294.313 44.764 294.137 44.7 293.945 44.636C293.753 44.54 293.577 44.444 293.417 44.348H290.825L290.393 44.108H290.729L290.297 43.868H290.105C289.721 43.612 289.385 43.372 289.097 43.148H290.537C290.409 43.02 290.281 42.908 290.153 42.812C290.025 42.684 289.897 42.556 289.769 42.428H290.009C289.977 42.364 289.945 42.316 289.913 42.284C289.881 42.252 289.833 42.22 289.769 42.188L289.193 41.468H289.241L288.905 40.988H288.809C288.585 40.668 288.409 40.348 288.281 40.028H288.425C288.361 39.9 288.329 39.82 288.329 39.788H288.185L287.993 39.308H288.713C288.681 39.148 288.633 38.988 288.569 38.828C288.505 38.668 288.441 38.508 288.377 38.348H287.993C287.961 38.22 287.929 38.108 287.897 38.012C287.865 37.884 287.833 37.756 287.801 37.628H287.513L287.369 37.148H286.889L286.745 36.188H287.225C287.193 36.028 287.161 35.868 287.129 35.708C287.129 35.548 287.129 35.404 287.129 35.276V35.228H286.265V34.988H286.025C286.025 34.924 286.009 34.876 285.977 34.844C285.977 34.812 285.977 34.78 285.977 34.748H288.665C288.665 34.652 288.649 34.572 288.617 34.508H285.929V33.788H287.081V33.548H287.657V33.068H288.665V32.588H285.737C285.737 32.428 285.737 32.268 285.737 32.108C285.737 31.948 285.753 31.788 285.785 31.628H285.161V31.148H289.913C289.945 31.052 289.961 30.924 289.961 30.764V30.428H288.665C288.665 30.3 288.665 30.188 288.665 30.092C288.697 29.964 288.713 29.836 288.713 29.708H289.193L289.337 28.748H287.753C287.785 28.62 287.817 28.508 287.849 28.412C287.881 28.284 287.913 28.156 287.945 28.028H287.609C287.673 27.868 287.721 27.708 287.753 27.548C287.817 27.356 287.881 27.196 287.945 27.068H287.993C288.025 27.004 288.057 26.924 288.089 26.828C288.121 26.732 288.153 26.652 288.185 26.588H288.137C288.137 26.556 288.169 26.476 288.233 26.348H288.473C288.601 26.028 288.777 25.708 289.001 25.388H288.041L288.329 24.908H290.105C290.137 24.844 290.201 24.764 290.297 24.668H286.793C286.857 24.54 286.937 24.428 287.033 24.332C287.161 24.204 287.273 24.076 287.369 23.948H288.473C288.633 23.788 288.793 23.628 288.953 23.468C289.145 23.276 289.321 23.116 289.481 22.988H291.689C291.977 22.732 292.313 22.492 292.697 22.268H293.609C293.737 22.172 293.865 22.092 293.993 22.028C294.153 21.932 294.297 21.852 294.425 21.788H291.593C291.881 21.628 292.233 21.468 292.649 21.308H293.945C294.681 21.02 295.449 20.78 296.249 20.588H294.809C296.377 20.236 298.041 20.06 299.801 20.06C301.561 20.06 303.225 20.236 304.793 20.588H306.281C307.081 20.78 307.833 21.02 308.537 21.308H307.193C307.609 21.468 307.961 21.628 308.249 21.788H311.081C311.241 21.852 311.385 21.932 311.513 22.028C311.673 22.092 311.817 22.172 311.945 22.268H311.033L312.041 22.988H309.833C310.025 23.116 310.201 23.276 310.361 23.468C310.553 23.628 310.729 23.788 310.889 23.948H309.785C309.881 24.076 309.977 24.204 310.073 24.332C310.201 24.428 310.297 24.54 310.361 24.668H313.913L314.057 24.908H312.329L312.617 25.388H313.577C313.801 25.708 313.977 26.028 314.105 26.348H313.865C313.929 26.476 313.961 26.556 313.961 26.588H314.057L314.249 27.068H314.201C314.265 27.196 314.329 27.356 314.393 27.548C314.457 27.708 314.505 27.868 314.537 28.028H315.017L315.161 28.748H314.873C314.937 28.876 314.969 29.036 314.969 29.228C315.001 29.388 315.033 29.548 315.065 29.708H315.449C315.481 29.836 315.497 29.964 315.497 30.092C315.497 30.188 315.513 30.3 315.545 30.428H313.673V30.764C313.673 30.924 313.689 31.052 313.721 31.148H312.761V31.628H318.953ZM300.521 29.708C300.489 29.836 300.457 29.964 300.425 30.092C300.425 30.188 300.425 30.3 300.425 30.428H301.769C301.737 30.524 301.721 30.62 301.721 30.716C301.721 30.812 301.721 30.908 301.721 31.004V31.148H301.913V31.004C301.913 30.908 301.897 30.812 301.865 30.716C301.865 30.62 301.865 30.524 301.865 30.428H303.737C303.737 30.3 303.721 30.188 303.689 30.092C303.689 29.964 303.689 29.836 303.689 29.708H303.305C303.273 29.516 303.225 29.34 303.161 29.18C303.129 29.02 303.081 28.876 303.017 28.748H303.353C303.225 28.46 303.033 28.22 302.777 28.028H302.297C301.977 27.836 301.561 27.74 301.049 27.74C300.537 27.74 300.137 27.836 299.849 28.028H300.185C300.057 28.124 299.945 28.236 299.849 28.364C299.753 28.46 299.673 28.588 299.609 28.748H301.193C301.161 28.876 301.113 29.02 301.049 29.18C301.017 29.34 300.985 29.516 300.953 29.708H300.521ZM303.785 32.588H307.193V31.628H301.001C300.969 31.5 300.953 31.34 300.953 31.148H296.969C296.969 31.34 296.953 31.5 296.921 31.628H297.545V32.588H300.473V33.068H299.417V33.548H298.841V33.788H297.689C297.689 33.916 297.689 34.044 297.689 34.172C297.721 34.268 297.737 34.38 297.737 34.508H301.529V33.788H303.689V33.548H301.817V33.068H303.785V32.588ZM303.017 34.988V34.748H297.785V34.988H298.025V35.036C298.025 35.068 298.025 35.1 298.025 35.132C298.057 35.164 298.073 35.196 298.073 35.228H298.889C298.921 35.388 298.937 35.548 298.937 35.708C298.937 35.868 298.953 36.028 298.985 36.188H298.505C298.569 36.604 298.633 36.924 298.697 37.148H299.225C299.289 37.34 299.353 37.5 299.417 37.628H299.753C300.041 38.076 300.585 38.3 301.385 38.3C302.185 38.3 302.729 38.076 303.017 37.628H303.209C303.241 37.564 303.273 37.5 303.305 37.436C303.337 37.34 303.369 37.244 303.401 37.148H302.681C302.713 36.988 302.745 36.844 302.777 36.716C302.809 36.556 302.841 36.38 302.873 36.188H303.209C303.241 36.028 303.257 35.868 303.257 35.708C303.257 35.548 303.273 35.388 303.305 35.228H302.873V34.988H303.017ZM340.15 24.188H341.974V25.148H341.878V26.108H340.198V26.828H340.63V27.788H340.246V28.748H339.382V28.988H336.358V29.324C336.358 29.388 336.342 29.452 336.31 29.516C336.31 29.58 336.294 29.644 336.262 29.708H337.366C337.206 30.316 336.79 30.62 336.118 30.62H329.926C329.798 30.62 329.67 30.62 329.542 30.62C329.446 30.62 329.35 30.636 329.254 30.668H331.174C331.014 30.7 330.87 30.732 330.742 30.764C330.614 30.796 330.47 30.844 330.31 30.908H331.894C331.798 30.94 331.654 31.02 331.462 31.148H332.374L332.086 31.388H332.326C332.134 31.58 331.99 31.82 331.894 32.108H330.454C330.39 32.236 330.358 32.316 330.358 32.348H329.878C329.878 32.38 329.862 32.412 329.83 32.444C329.83 32.476 329.83 32.524 329.83 32.588H330.406C330.374 32.652 330.358 32.732 330.358 32.828C330.358 32.892 330.342 32.972 330.31 33.068H330.598V33.788H329.926V34.268H330.598V34.988H331.318V35.948H330.262V36.188H329.494V36.428H332.374V37.148H330.934V37.628H331.414V38.108H330.31V39.068H329.686V39.308H329.062V40.028H330.694V40.748H329.83V41.468H330.694V41.708H330.598V42.188H329.542V42.668H330.31V43.628H330.502V44.348H330.31C330.246 44.796 330.038 45.116 329.686 45.308H329.254C329.094 45.436 328.87 45.5 328.582 45.5H319.462C319.174 45.5 318.95 45.436 318.79 45.308H319.222C318.87 45.116 318.662 44.796 318.598 44.348H318.79V43.628H318.598V42.668H317.83V42.188H318.886V41.708H318.982V41.468H318.118V40.748H318.982V40.028H317.35V39.308H317.974V39.068H318.598V38.108H319.702V37.628H319.222V37.148H320.662V36.428H317.782V36.188H318.55V35.948H319.605V34.988H318.886V34.268H318.214V33.788H318.886V33.068H318.598V32.588H318.021V32.348H318.502V32.108H319.942V31.388H319.702V31.148H318.838V30.908H317.254V30.668H315.333V29.708H314.277V28.988H317.302V28.748H318.166V27.788H318.55V26.828H318.118V26.108H319.798V25.148H319.894V24.188H318.07V23.468H319.605V22.508H318.118V22.268H318.598V21.836C318.598 21.676 318.63 21.5 318.694 21.308H318.646C318.87 20.796 319.27 20.54 319.846 20.54H328.246C328.79 20.54 329.174 20.796 329.398 21.308H329.494C329.558 21.5 329.59 21.676 329.59 21.836V22.268H329.109V22.508H330.598V22.652L330.79 22.508H330.886C330.95 22.444 331.014 22.396 331.078 22.364C331.142 22.332 331.19 22.3 331.222 22.268H331.318C331.958 21.852 332.582 21.532 333.19 21.308H333.286C333.926 21.052 334.566 20.86 335.206 20.732C335.846 20.604 336.518 20.54 337.222 20.54H339.526C340.102 20.54 340.502 20.796 340.726 21.308H340.63C340.694 21.5 340.726 21.676 340.726 21.836V22.268H340.677V22.508H340.582V23.468H340.15V24.188ZM372.529 22.508H368.641L368.545 22.748H372.577L372.145 23.708H370.273L369.889 24.668H370.897L370.513 25.628H368.929L368.737 26.108H369.937L369.745 26.588H369.457L369.361 26.828H369.313L368.977 27.548H369.457L369.169 28.268H365.761L365.521 28.748H368.161L368.065 28.988H363.745L363.553 29.468H363.169L362.737 30.428H369.073L368.977 30.668H367.873L367.633 31.148H367.969L367.873 31.388H367.585L367.153 32.348L366.865 33.068H366.289L365.953 33.788H366.337L366.001 34.508H366.145L366.049 34.748H366.001L365.809 35.228H366.049L365.857 35.708H365.617L365.425 36.188H365.377L365.089 36.908H365.377L365.281 37.148H364.993L364.657 37.868H362.881L362.449 38.828H363.601L363.409 39.308H364.801L364.417 40.268H362.833L362.641 40.748H363.409L363.025 41.708H362.785L362.353 42.668H362.689L362.497 43.148H362.401L362.161 43.628H362.065L361.729 44.348H361.873L361.537 45.068H361.153L360.817 45.788H360.145L359.905 46.268H363.409L363.025 47.228H359.473L359.041 48.188H361.009L360.577 49.148H362.545L362.113 50.108H362.209L361.825 51.068H355.777L355.537 51.548H356.929L356.737 52.028H358.849L358.609 52.508H353.809L353.569 52.988H356.065L355.873 53.468C355.713 53.884 355.441 54.204 355.057 54.428H353.041C352.785 54.556 352.513 54.62 352.225 54.62H344.353C344.065 54.62 343.857 54.556 343.729 54.428H345.697C345.409 54.204 345.265 53.932 345.265 53.612V53.468C345.265 53.34 345.281 53.228 345.313 53.132L345.361 52.988H342.865L343.105 52.508H347.905L348.097 52.028H345.985L346.177 51.548H344.833L345.025 51.068H351.073L351.505 50.108H351.409L351.793 49.148H349.825L350.209 48.188H348.289L348.673 47.228H352.225L352.609 46.268H349.105L349.297 45.788H350.017L350.305 45.068H350.737L351.025 44.348H350.929L351.121 43.916L350.977 43.628H351.073L350.881 43.148H351.025L350.785 42.668H350.449L350.065 41.708H350.305L349.873 40.748H349.105L348.865 40.268H350.449L350.065 39.308H348.625L348.433 38.828H347.281L346.897 37.868H348.673L348.385 37.148H348.673L348.577 36.908H348.241L347.953 36.188H348.001L347.809 35.708H348.001L347.809 35.228H347.521L347.329 34.748H347.377L347.281 34.508H347.137L346.849 33.788H346.513L346.177 33.068H346.753L346.465 32.348H345.793L345.409 31.388H345.937L345.793 31.148H346.561L346.321 30.668H345.121L344.977 30.428H344.929L344.497 29.468H338.497L338.257 28.988H341.857L341.761 28.748H341.953L341.713 28.268H344.113L343.777 27.548H344.209L343.921 26.828H344.017L343.921 26.588H343.873L343.681 26.108H343.537L343.297 25.628H343.777L343.393 24.668H342.097L341.665 23.708H342.673L342.289 22.748H339.697L339.601 22.508H343.393L343.201 22.028C343.169 21.932 343.153 21.82 343.153 21.692C343.153 21.628 343.169 21.58 343.201 21.548H343.873C344.033 20.876 344.417 20.54 345.025 20.54H353.137C353.585 20.54 353.921 20.652 354.145 20.876C354.369 21.068 354.529 21.292 354.625 21.548H353.953C353.953 21.58 353.953 21.612 353.953 21.644C353.985 21.644 354.001 21.66 354.001 21.692L354.145 22.028L354.289 22.508H350.449L350.545 22.748H353.137L353.521 23.708H352.513L352.849 24.668H354.145L354.481 25.628H354.001L354.193 26.108H354.337L354.625 26.828H354.529L354.769 27.548H354.385L354.625 28.268H352.273L352.417 28.748H352.225L352.321 28.988H348.769L348.913 29.468H353.137L353.329 28.988H357.649L357.745 28.748H355.105L355.297 28.268H358.657L358.945 27.548H358.465L358.753 26.828H358.801L358.897 26.588H359.185L359.329 26.108H358.129L358.321 25.628H359.857L360.241 24.668H359.185L359.569 23.708H361.441L361.777 22.748H357.745L357.841 22.508H361.729L361.921 22.028L362.017 21.692C362.049 21.66 362.065 21.612 362.065 21.548H360.481C360.641 21.292 360.833 21.068 361.057 20.876C361.313 20.652 361.649 20.54 362.065 20.54H370.081C370.369 20.54 370.625 20.652 370.849 20.876C371.073 21.068 371.185 21.292 371.185 21.548H372.769C372.769 21.74 372.753 21.9 372.721 22.028L372.529 22.508ZM358.657 30.668L358.705 30.428H355.393L355.489 30.668H356.689L356.881 31.148H356.161L356.257 31.388H355.729L356.065 32.348H356.737L356.833 32.636L356.929 32.348L357.265 31.388H357.601L357.697 31.148H357.361L357.505 30.668H358.657Z" fill="#D5D5D5"/>
</svg>
